<?xml version="1.0" encoding="UTF-8" standalone="no"?>
<svg
   width="96"
   height="96"
   viewBox="0 0 96 96"
   version="1.1"
   xmlns="http://www.w3.org/2000/svg">
  <defs>
    <style type="text/css" id="current-color-scheme">
      .ColorScheme-Background {
        color:#c8c4bc;
        stop-color:#c8c4bc;
      }
    </style>
  </defs>

  <rect id="hint-tile-center" x="0" y="0" width="4" height="4" style="fill:#ff6600;fill-opacity:1" />
  <rect id="hint-top-margin" x="34" y="46" width="4" height="2" style="fill:#800080;fill-opacity:1" />
  <rect id="hint-bottom-margin" x="34" y="58" width="4" height="2" style="fill:#800080;fill-opacity:1" />
  <rect id="hint-left-margin" x="18" y="50" width="2" height="4" style="fill:#800080;fill-opacity:1" />
  <rect id="hint-right-margin" x="52" y="50" width="2" height="4" style="fill:#800080;fill-opacity:1" />

  <g id="center" transform="translate(20,20)">
    <rect x="0" y="0" width="32" height="32" class="ColorScheme-Background" style="fill:currentColor;fill-opacity:1" />
    <rect x="0" y="0" width="32" height="1" style="fill:#f5f3ed;fill-opacity:1" />
    <rect x="0" y="31" width="32" height="1" style="fill:#000000;fill-opacity:1" />
  </g>

  <g id="top" transform="translate(20,8)">
    <rect x="0" y="0" width="32" height="12" class="ColorScheme-Background" style="fill:currentColor;fill-opacity:1" />
    <rect x="0" y="0" width="32" height="1" style="fill:#f5f3ed;fill-opacity:1" />
  </g>

  <g id="bottom" transform="translate(20,52)">
    <rect x="0" y="0" width="32" height="12" class="ColorScheme-Background" style="fill:currentColor;fill-opacity:1" />
    <rect x="0" y="11" width="32" height="1" style="fill:#000000;fill-opacity:1" />
  </g>

  <g id="left" transform="translate(8,20)">
    <rect x="0" y="0" width="12" height="32" class="ColorScheme-Background" style="fill:currentColor;fill-opacity:1" />
    <rect x="0" y="0" width="12" height="1" style="fill:#f5f3ed;fill-opacity:1" />
    <rect x="0" y="31" width="12" height="1" style="fill:#000000;fill-opacity:1" />
  </g>

  <g id="right" transform="translate(52,20)">
    <rect x="0" y="0" width="12" height="32" class="ColorScheme-Background" style="fill:currentColor;fill-opacity:1" />
    <rect x="0" y="0" width="12" height="1" style="fill:#f5f3ed;fill-opacity:1" />
    <rect x="0" y="31" width="12" height="1" style="fill:#000000;fill-opacity:1" />
  </g>

  <g id="topleft" transform="translate(8,8)">
    <rect x="0" y="0" width="12" height="12" class="ColorScheme-Background" style="fill:currentColor;fill-opacity:1" />
    <rect x="0" y="0" width="12" height="1" style="fill:#f5f3ed;fill-opacity:1" />
  </g>

  <g id="topright" transform="translate(52,8)">
    <rect x="0" y="0" width="12" height="12" class="ColorScheme-Background" style="fill:currentColor;fill-opacity:1" />
    <rect x="0" y="0" width="12" height="1" style="fill:#f5f3ed;fill-opacity:1" />
  </g>

  <g id="bottomleft" transform="translate(8,52)">
    <rect x="0" y="0" width="12" height="12" class="ColorScheme-Background" style="fill:currentColor;fill-opacity:1" />
    <rect x="0" y="11" width="12" height="1" style="fill:#000000;fill-opacity:1" />
  </g>

  <g id="bottomright" transform="translate(52,52)">
    <rect x="0" y="0" width="12" height="12" class="ColorScheme-Background" style="fill:currentColor;fill-opacity:1" />
    <rect x="0" y="11" width="12" height="1" style="fill:#000000;fill-opacity:1" />
  </g>

  <rect id="mask-center" x="20" y="20" width="32" height="32" style="fill:#ffffff;fill-opacity:1" />
  <rect id="mask-top" x="20" y="8" width="32" height="12" style="fill:#ffffff;fill-opacity:1" />
  <rect id="mask-bottom" x="20" y="52" width="32" height="12" style="fill:#ffffff;fill-opacity:1" />
  <rect id="mask-left" x="8" y="20" width="12" height="32" style="fill:#ffffff;fill-opacity:1" />
  <rect id="mask-right" x="52" y="20" width="12" height="32" style="fill:#ffffff;fill-opacity:1" />
  <rect id="mask-topleft" x="8" y="8" width="12" height="12" style="fill:#ffffff;fill-opacity:1" />
  <rect id="mask-topright" x="52" y="8" width="12" height="12" style="fill:#ffffff;fill-opacity:1" />
  <rect id="mask-bottomleft" x="8" y="52" width="12" height="12" style="fill:#ffffff;fill-opacity:1" />
  <rect id="mask-bottomright" x="52" y="52" width="12" height="12" style="fill:#ffffff;fill-opacity:1" />
</svg>
